LG_Walk_Slower02																		
version=1																		
nRows=35																		
nColumns=19																		
inDegrees=yes																		
endheader																		
time	ground_force2_vx	ground_force2_vy	ground_force2_vz	ground_force2_px	ground_force2_py	ground_force2_pz	ground_torque2_x	ground_torque2_y	ground_torque2_z	ground_force1_vx	ground_force1_vy	ground_force1_vz	ground_force1_px	ground_force1_py	ground_force1_pz	ground_torque1_x	ground_torque1_y	ground_torque1_z
6.665	-49.097389	722.88916	-57.429317	0.176342	0	-0.359207	1.10E-05	-1.576484	1.00E-06	0	0	0	-0.13	0	0.305	0	0	0
6.666	-48.938076	721.332397	-57.58606	0.175968	0	-0.359574	1.10E-05	-1.660787	9.00E-06	0	0	0	-0.13	0	0.305	0	0	0
6.667	-48.469528	720.297485	-57.58606	0.176284	0	-0.35951	1.10E-05	-1.669134	9.00E-06	0	0	0	-0.13	0	0.305	0	0	0
6.668	-48.626671	719.602844	-57.742802	0.176284	0	-0.359574	1.10E-05	-1.667854	1.20E-05	0	0	0	-0.13	0	0.305	0	0	0
6.669	-48.390953	719.602844	-57.664307	0.17642	0	-0.359758	2.30E-05	-1.695001	8.00E-06	0	0	0	-0.13	0	0.305	0	0	0
6.67	-48.390953	719.602844	-58.212742	0.17642	0	-0.359758	8.00E-06	-1.667854	7.00E-06	0	0	0	-0.13	0	0.305	0	0	0
6.671	-48.390953	719.250244	-58.212742	0.17631	0	-0.359837	6.00E-06	-1.606624	3.00E-06	0	0	0	-0.13	0	0.305	0	0	0
6.672	-48.31599	717.541504	-58.212742	0.176118	0	-0.359837	4.00E-06	-1.557428	5.00E-06	0	0	0	-0.13	0	0.305	0	0	0
6.673	-48.473137	716.158264	-58.212742	0.17631	0	-0.360084	6.00E-06	-1.557428	4.00E-06	0	0	0	-0.13	0	0.305	0	0	0
6.674	-48.470249	713.920715	-58.604515	0.176055	0	-0.360558	1.00E-05	-1.577279	4.00E-06	0	0	0	-0.13	0	0.305	0	0	0
6.675	-48.470249	713.898682	-58.604599	0.176128	0	-0.360794	2.00E-05	-1.614969	4.00E-06	0	0	0	-0.13	0	0.305	0	0	0
6.676	-48.004585	713.381104	-59.074501	0.17608	0	-0.360869	2.10E-05	-1.614969	1.40E-05	0	0	0	-0.13	0	0.305	0	0	0
6.677	-47.453133	713.033142	-59.074501	0.17608	0	-0.361045	2.10E-05	-1.737941	1.40E-05	0	0	0	-0.13	0	0.305	0	0	0
6.678	-46.986031	710.279053	-59.074501	0.17608	0	-0.361258	1.00E-05	-1.778014	1.00E-05	0	0	0	-0.13	0	0.305	0	0	0
6.679	-46.283928	708.043396	-59.46603	0.175938	0	-0.361361	8.00E-06	-1.80894	9.00E-06	0	0	0	-0.13	0	0.305	0	0	0
6.68	-46.127502	705.287476	-59.46603	0.175865	0	-0.361361	9.00E-06	-1.813924	3.00E-06	0	0	0	-0.13	0	0.305	0	0	0
6.681	-45.97036	703.737244	-58.996048	0.175865	0	-0.361365	8.00E-06	-1.841846	3.00E-06	0	0	0	-0.13	0	0.305	0	0	0
6.682	-45.890343	703.737244	-58.917557	0.175865	0	-0.361365	9.00E-06	-1.846912	3.00E-06	0	0	0	-0.13	0	0.305	0	0	0
6.683	-45.578217	702.016602	-58.996048	0.175867	0	-0.361365	1.10E-05	-1.846912	7.00E-06	0	0	0	-0.13	0	0.305	0	0	0
6.684	-45.349716	700.629456	-59.544197	0.17568	0	-0.36183	1.30E-05	-1.767459	2.00E-06	0	0	0	-0.13	0	0.305	0	0	0
6.685	-45.271141	699.758484	-59.857681	0.1756	0	-0.361647	1.10E-05	-1.767459	5.00E-06	0	0	0	-0.13	0	0.305	0	0	0
6.686	-44.803318	697.354248	-60.014225	0.1756	0	-0.362019	1.00E-05	-1.758918	3.00E-06	0	0	0	-0.13	0	0.305	0	0	0
6.687	-44.645451	696.326355	-60.406158	0.175692	0	-0.362224	1.00E-05	-1.773895	3.00E-06	0	0	0	-0.13	0	0.305	0	0	0
6.688	-44.098328	694.424316	-60.641151	0.175918	0	-0.362234	1.20E-05	-1.773895	3.00E-06	0	0	0	-0.13	0	0.305	0	0	0
6.689	-44.098328	694.086853	-60.406158	0.175731	0	-0.362224	1.20E-05	-1.773895	5.00E-06	0	0	0	-0.13	0	0.305	0	0	0
6.69	-44.259079	693.730042	-60.327427	0.175731	0	-0.362234	1.20E-05	-1.758398	7.00E-06	0	0	0	-0.13	0	0.305	0	0	0
6.691	-44.259079	690.46106	-60.327427	0.175731	0	-0.36235	1.30E-05	-1.758398	9.00E-06	0	0	0	-0.13	0	0.305	0	0	0
6.692	-44.259079	689.772522	-60.562576	0.175785	0	-0.362358	1.30E-05	-1.758398	9.00E-06	0	0	0	-0.13	0	0.305	0	0	0
6.693	-43.948399	688.740295	-60.562576	0.175812	0	-0.36235	1.40E-05	-1.694175	1.30E-05	0	0	0	-0.13	0	0.305	0	0	0
6.694	-43.948399	685.483276	-60.327591	0.175785	0	-0.36257	7.00E-06	-1.63612	8.00E-06	0	0	0	-0.13	0	0.305	0	0	0
6.695	-43.321983	684.266296	-60.327591	0.175728	0	-0.362867	1.50E-05	-1.694175	1.10E-05	0	0	0	-0.13	0	0.305	0	0	0
6.696	-43.322704	680.818359	-60.797329	0.175553	0	-0.363131	9.00E-06	-1.760738	1.00E-05	0	0	0	-0.13	0	0.305	0	0	0
6.697	-43.321983	678.211609	-60.797329	0.175002	0	-0.363398	1.90E-05	-1.760738	1.10E-05	0	0	0	-0.13	0	0.305	0	0	0
6.698	-43.252071	676.499329	-60.797211	0.175002	0	-0.363398	9.00E-06	-1.647077	1.00E-05	0	0	0	-0.13	0	0.305	0	0	0
6.699	-43.252071	675.825195	-60.718674	0.175351	0	-0.363398	2.00E-05	-1.543123	7.00E-06	0	0	0	-0.13	0	0.305	0	0	0
